<?xml version="1.0" standalone="no"?><!DOCTYPE svg PUBLIC "-//W3C//DTD SVG 1.1//EN" "http://www.w3.org/Graphics/SVG/1.1/DTD/svg11.dtd"><svg t="1773812964534" class="icon" viewBox="0 0 1025 1024" version="1.1" xmlns="http://www.w3.org/2000/svg" p-id="5904" xmlns:xlink="http://www.w3.org/1999/xlink" width="200.1953125" height="200"><path d="M512.61025 108.624553A402.765197 402.765197 0 1 0 915.375447 512.61025 403.253397 403.253397 0 0 0 512.61025 108.624553z m0 732.300358A329.535161 329.535161 0 1 1 842.145411 512.61025 329.779261 329.779261 0 0 1 512.61025 840.924911z m172.578785-358.583075H549.225268v-143.530871a36.615018 36.615018 0 0 0-73.230036 0v180.145888a36.615018 36.615018 0 0 0 36.615018 36.615018h172.578785a36.615018 36.615018 0 0 0 0-73.230035z" p-id="5905"></path></svg>